<?xml version="1.0" encoding="UTF-8"?>
<svg version="1.1" viewBox="0 0 1416 944" width="1416" height="944" xmlns="http://www.w3.org/2000/svg">
<path transform="translate(79,298)" d="m0 0h79l23 3 17 5 12 6 6 4v2l4 2 7 9 5 11 3 14v24l-3 15-4 10-6 11-9 11-8 7-14 9-15 7-18 6-17 4-33 3h-10v105l-2 4-4 2h-15l-5-4v-265l4-4z"/>
<path transform="translate(1134,416)" d="m0 0h20l13 4 10 6 5 4v2l3 1 8 12 5 14 2 9 1 10v24l-3 19-6 17-6 10-10 11-10 7-13 5-16 3h-9l-15-3-13-5-1 1-1 125-3 3-3 1h-13l-5-3-1-2v-269l4-4 3-1h12l5 3 1 1 1 16h2l7-8 9-7 9-4z"/>
<path transform="translate(294,416)" d="m0 0h22l17 5 11 5 1-6 6-3h12l5 3 2 4 1 122 4 4h8l7-4 3-2h6l6 7v6l-4 6-9 6-11 4-11 1-12-3-6-4-4-5-3-7-1-5-3 1-8 10-12 8-8 3-13 2-13-1-13-4-10-6-7-6-9-14-5-14-3-18v-23l3-20 6-17 9-14 10-10 10-6z"/>
<path transform="translate(936,293)" d="m0 0h11l15 2 14 4 16 8 11 7 10 9 4 4 1 5-4 6-5 4-7 1-13-10-17-9-16-4-8-1h-11l-18 3-14 7-7 7-4 7-2 8v22l4 12 8 11 9 7 15 8 40 14 19 9 11 8 9 8 7 10 5 10 3 11 1 9v14l-2 14-5 15-7 11-9 10-10 7-10 5-11 4-15 3-7 1h-25l-20-4-17-6-13-8-10-9-6-7-1-7 7-8 6-2 8 6 11 8 13 6 15 4 9 1h19l19-3 12-5 8-6 7-9 5-14 1-18-2-11-6-12-9-8-11-7-20-8-31-11-17-9-13-10-1-3h-2v-2h-2l-8-11-6-12-3-11-1-8v-17l3-15 6-12 6-8 9-9 14-8 14-5 10-2z"/>
<path transform="translate(760,416)" d="m0 0h24l11 3 9 4 9 8 5 10 2 9v10l-3 11-5 10-11 11-13 8-16 6-18 4-28 3 2 9 6 12 7 8 11 6 4 1h20l10-4 11-8 9-9 4-2 7 1 7 6 1 2v6l-8 11-7 7-13 8-13 5-10 2h-20l-16-4-12-6-10-9-7-8-7-14-4-16-1-7v-18l2-15 5-16 6-12 8-10 2-3h2v-2l14-10 12-5z"/>
<path transform="translate(98,322)" d="m0 0h61l13 2 14 4 11 7 6 7 4 8 2 9v15l-3 14-4 10-7 9-9 9-11 7-17 7-15 4-23 3-21 1-1-1z" fill="#FEFEFE"/>
<path transform="translate(1235,417)" d="m0 0h9l6 3 4 8 17 45 15 39 8 21v3h2l3-10 15-44 13-37 8-23 4-4 3-1h10l5 3 3 5-1 8-8 21-10 29-9 24-19 53-9 24-8 23-10 27-8 23-13 35-3 3-3 1h-10l-6-3-2-3v-7l11-30 21-57 9-24-1-5-23-58-12-30-19-48v-7l5-6z"/>
<path transform="translate(601,416)" d="m0 0h24l15 4 14 7 8 7 1 2v6l-5 7-4 2-6-1-13-8-11-4-5-1h-14l-10 4-5 6-2 7 1 9 4 6 8 5 15 6 21 7 11 6 8 7 5 8 2 6v22l-4 11-6 10-8 7-9 5-7 3-11 2h-20l-16-4-10-4-12-8-6-5-1-2v-7l7-8h7l14 9 13 6 11 2h8l11-3 7-4 5-7 1-3v-14l-4-7-10-6-33-11-12-6-9-8-6-12-1-7v-12l2-8 5-10 7-8 10-6 11-4z"/>
<path transform="translate(302,439)" d="m0 0h15l15 3 10 5 2 2v71l-7 12-6 7-9 6-10 4-5 1h-11l-10-3-8-6-6-9-3-7-2-8-1-10v-18l2-14 4-13 7-11 9-7 9-4z" fill="#FEFEFE"/>
<path transform="translate(1130,440)" d="m0 0h20l10 5 7 8 5 12 2 9 1 10v14l-2 16-4 12-6 11-9 8-9 4-3 1h-20l-13-4-10-5-1-2v-71l6-10 7-8 11-7z" fill="#FEFEFE"/>
<path transform="translate(495,416)" d="m0 0h18l10 3 6 4 2 4-2 9-4 5-8 2-8-2h-19l-9 4-10 7-9 13-3 6-1 97-4 4-5 1h-7l-7-2-2-3v-147l3-3 3-1h12l6 3 1 2v19l14-14 14-8z"/>
<path transform="translate(760,440)" d="m0 0h20l10 5 3 5v14l-6 9-8 6-12 6-21 5-21 2-1-1v-10l5-15 7-11 10-9 10-5z" fill="#FEFEFE"/>
</svg>
